<?xml version="1.0" encoding="UTF-8" standalone="no"?>
<!-- Created with Inkscape (http://www.inkscape.org/) -->

<svg
   xmlns:dc="http://purl.org/dc/elements/1.1/"
   xmlns:cc="http://creativecommons.org/ns#"
   xmlns:rdf="http://www.w3.org/1999/02/22-rdf-syntax-ns#"
   xmlns:svg="http://www.w3.org/2000/svg"
   xmlns="http://www.w3.org/2000/svg"
   xmlns:sodipodi="http://sodipodi.sourceforge.net/DTD/sodipodi-0.dtd"
   xmlns:inkscape="http://www.inkscape.org/namespaces/inkscape"
   width="1600.7008"
   height="400.51971"
   viewBox="0 0 423.51875 105.97084"
   version="1.1"
   id="svg8"
   inkscape:version="0.92.2 (unknown)"
   sodipodi:docname="Confbar_long.svg">
  <defs
     id="defs2" />
  <sodipodi:namedview
     id="base"
     pagecolor="#ffffff"
     bordercolor="#666666"
     borderopacity="1.0"
     inkscape:pageopacity="0.0"
     inkscape:pageshadow="2"
     inkscape:zoom="0.58759615"
     inkscape:cx="593.64152"
     inkscape:cy="724.47063"
     inkscape:document-units="px"
     inkscape:current-layer="layer1"
     showgrid="true"
     showborder="true"
     inkscape:window-width="1920"
     inkscape:window-height="1056"
     inkscape:window-x="0"
     inkscape:window-y="24"
     inkscape:window-maximized="1"
     units="px"
     inkscape:pagecheckerboard="false"
     height="600.51969px">
    <inkscape:grid
       type="xygrid"
       id="grid290" />
  </sodipodi:namedview>
  <metadata
     id="metadata5">
    <rdf:RDF>
      <cc:Work
         rdf:about="">
        <dc:format>image/svg+xml</dc:format>
        <dc:type
           rdf:resource="http://purl.org/dc/dcmitype/StillImage" />
        <dc:title></dc:title>
      </cc:Work>
    </rdf:RDF>
  </metadata>
  <g
     inkscape:label="Layer 1"
     inkscape:groupmode="layer"
     id="layer1"
     transform="translate(0,-191.02914)">
    <path
       style="font-style:normal;font-variant:normal;font-weight:normal;font-stretch:normal;font-size:50.79999924px;line-height:1.25;font-family:'Noto Mono for Powerline';-inkscape-font-specification:'Noto Mono for Powerline';letter-spacing:0px;word-spacing:0px;fill:#ff0000;fill-opacity:1;stroke:none;stroke-width:0.4234286"
       d="m 59.395299,203.71818 c -8.717262,0 -15.51862,2.82764 -20.403292,8.48293 -4.884675,5.65528 -7.326462,13.60993 -7.326462,23.86485 v 17.64514 c 0,10.55652 2.441787,18.58654 7.326462,24.09101 4.884672,5.50446 11.68603,8.25676 20.403292,8.25676 4.508928,0 8.49138,-0.71622 11.948237,-2.1489 3.456841,-1.50807 6.350015,-3.54414 8.679632,-6.10786 2.329617,-2.63914 4.096381,-5.69282 5.298759,-9.1614 1.202393,-3.54398 1.803142,-7.31389 1.803142,-11.31029 v -1.35777 H 77.65615 v 1.35777 c 0,2.63914 -0.375481,5.16456 -1.126969,7.57747 -0.676334,2.33752 -1.766428,4.44894 -3.269404,6.33403 -1.427838,1.80969 -3.306007,3.28024 -5.635624,4.41128 -2.254463,1.05566 -4.997441,1.58393 -8.228854,1.58393 -6.087056,0 -10.671076,-2.07416 -13.75218,-6.22136 -3.005954,-4.22262 -4.509481,-10.21737 -4.509481,-17.98397 v -16.28655 c 3e-6,-7.23876 1.503527,-13.08282 4.509481,-17.53165 3.081104,-4.44883 7.665124,-6.67285 13.75218,-6.67285 3.231413,0 5.974391,0.56553 8.228854,1.6966 2.25448,1.05563 4.095503,2.52535 5.523341,4.41045 1.502976,1.80969 2.592239,3.9211 3.26859,6.33402 0.751487,2.41293 1.164912,4.90108 1.240066,7.46481 v 1.35777 h 9.468919 v -1.35777 c 0,-3.9964 -0.600749,-7.72822 -1.803142,-11.19679 -1.202378,-3.54398 -2.969142,-6.5985 -5.298759,-9.16223 -2.329617,-2.63912 -5.222791,-4.67437 -8.679632,-6.10703 -3.456857,-1.50807 -7.439309,-2.2624 -11.948237,-2.2624 z m 38.319042,1.27493 v 13.08308 H 388.43801 V 204.99311 Z M 217.9157,227.47037 c -1.83963,0 -3.35462,0.59745 -4.54497,1.79185 -1.13625,1.1944 -1.70407,2.71451 -1.70407,4.5604 v 10.26069 h -12.418 v 5.86349 h 12.418 v 34.52897 h 6.32996 V 249.9468 h 16.80033 v -5.86349 h -16.80033 v -8.30646 c 0,-1.62872 0.73109,-2.44299 2.19198,-2.44299 h 13.63496 v -5.86349 z m 29.8937,0 v 57.0054 h 6.33076 v -6.18904 h 0.97423 c 0.70338,1.24868 1.5685,2.33436 2.59654,3.25731 1.02804,0.86865 2.13767,1.62829 3.32804,2.27978 1.24446,0.59719 2.54255,1.03164 3.89522,1.30309 1.35268,0.32575 2.6784,0.48876 3.97697,0.48876 2.54303,0 4.95076,-0.43443 7.22326,-1.30309 2.2725,-0.92293 4.24725,-2.25315 5.92457,-3.99045 1.73143,-1.73731 3.08477,-3.88177 4.0587,-6.43343 0.97393,-2.55167 1.46051,-5.4835 1.46051,-8.79524 v -1.62865 c 0,-3.25745 -0.51421,-6.16156 -1.54225,-8.71323 -0.97393,-2.55166 -2.32644,-4.69614 -4.05788,-6.43343 -1.67731,-1.7373 -3.62526,-3.06752 -5.84365,-3.99045 -2.21841,-0.92295 -4.57168,-1.38429 -7.06062,-1.38429 -2.92179,0 -5.62765,0.65125 -8.11657,1.95423 -2.48894,1.24868 -4.43606,3.09484 -5.84284,5.53792 h -0.97423 v -22.96519 z m -129.61251,15.47304 c -2.65125,0 -5.19381,0.46134 -7.62863,1.38429 -2.43483,0.92293 -4.59968,2.28003 -6.49342,4.07163 -1.83965,1.79159 -3.327,3.99068 -4.463249,6.59664 -1.08214,2.55166 -1.62316,5.4835 -1.62316,8.79524 v 0.97668 c 0,3.36602 0.54102,6.35248 1.62316,8.95844 1.136249,2.55165 2.623599,4.72302 4.463249,6.51461 1.83963,1.73731 3.97686,3.06753 6.41168,3.99046 2.43482,0.92294 5.00501,1.38427 7.71037,1.38427 2.65125,0 5.19463,-0.46133 7.62946,-1.38427 2.48893,-0.92293 4.65295,-2.25315 6.4926,-3.99046 1.83964,-1.79159 3.30102,-3.96296 4.38316,-6.51461 1.13625,-2.60596 1.70406,-5.59242 1.70406,-8.95844 v -0.97668 c 0,-3.31174 -0.56781,-6.24358 -1.70406,-8.79524 -1.08214,-2.60596 -2.57032,-4.80505 -4.46408,-6.59664 -1.83963,-1.7916 -3.97686,-3.1487 -6.41168,-4.07163 -2.43483,-0.92295 -4.97821,-1.38429 -7.62946,-1.38429 z m 52.13231,0 c -6.16822,0 -10.49709,2.6596 -12.98602,7.9801 h -0.97422 v -6.8402 h -6.32995 v 40.39246 h 6.32995 v -21.01096 c 0,-4.39755 1.08284,-7.89913 3.24713,-10.50508 2.21839,-2.66024 5.24836,-3.99045 9.08996,-3.99045 3.24643,0 5.81579,1.05878 7.70955,3.17612 1.89375,2.11734 2.84092,5.29371 2.84092,9.52839 v 22.80198 h 6.33078 V 260.3707 c 0,-5.80912 -1.38015,-10.15267 -4.13962,-13.03008 -2.75945,-2.93169 -6.46527,-4.39721 -11.11848,-4.39721 z m 143.97729,0 c -2.54304,0 -4.95075,0.46134 -7.22325,1.38429 -2.27251,0.92293 -4.27408,2.28003 -6.0055,4.07163 -1.67733,1.73731 -3.00303,3.88177 -3.97696,6.43344 -0.97393,2.55166 -1.46134,5.48351 -1.46134,8.79523 v 1.30309 c 0,3.36603 0.48741,6.32476 1.46134,8.87642 0.97393,2.55167 2.29963,4.72303 3.97696,6.51462 1.73142,1.7373 3.73299,3.06752 6.0055,3.99045 2.2725,0.86866 4.73464,1.30309 7.3859,1.30309 2.54303,0 4.95075,-0.65123 7.22325,-1.95421 2.32662,-1.30299 4.1389,-3.31215 5.43747,-6.0267 h 0.97422 v 0.48878 c 0,1.84587 0.5678,3.366 1.70405,4.56038 1.19037,1.19441 2.70534,1.79185 4.54499,1.79185 h 4.30226 v -5.86347 h -2.02936 c -1.46089,0 -2.19116,-0.81427 -2.19116,-2.44299 v -32.086 h -6.33078 v 6.35225 h -0.97422 c -1.29857,-2.55165 -3.08406,-4.42472 -5.35656,-5.6191 -2.21839,-1.24868 -4.70734,-1.87305 -7.46681,-1.87305 z m 58.38135,0 c -2.43483,0 -4.59885,0.54285 -6.49259,1.62866 -1.89376,1.03153 -3.35514,2.66006 -4.38316,4.88597 h -0.9734 v -5.37473 h -14.60916 v 5.86349 h 8.27838 v 28.6655 h -9.25262 v 5.86347 h 25.8094 v -5.86347 h -10.226 v -17.10172 c 0,-1.7373 0.18927,-3.36583 0.56801,-4.88596 0.37876,-1.52014 0.97419,-2.85035 1.78579,-3.99046 0.81161,-1.1401 1.8124,-2.03587 3.00276,-2.68736 1.24446,-0.65149 2.70502,-0.97752 4.38233,-0.97752 2.59714,0 4.7888,0.84198 6.57434,2.525 1.78554,1.62872 2.67827,4.31603 2.67827,8.06209 l 6.65525,-0.97754 c -0.16232,-5.10331 -1.48804,-8.98472 -3.97698,-11.64495 -2.48891,-2.66025 -5.76258,-3.99047 -9.82062,-3.99047 z m -254.49095,6.02587 c 1.89376,0 3.67923,0.37982 5.35656,1.1399 1.67732,0.70577 3.1387,1.71076 4.38316,3.01374 1.24446,1.30298 2.21843,2.87689 2.92183,4.72278 0.7034,1.79159 1.05512,3.77387 1.05512,5.94551 v 0.97668 c 0,2.28021 -0.35172,4.34318 -1.05512,6.18907 -0.7034,1.79159 -1.67737,3.33942 -2.92183,4.6424 -1.24446,1.30297 -2.70584,2.30715 -4.38316,3.01294 -1.62322,0.65149 -3.40871,0.97669 -5.35656,0.97669 -1.94786,0 -3.76014,-0.3252 -5.43747,-0.97669 -1.62321,-0.70579 -3.05696,-1.70997 -4.30142,-3.01294 -1.24446,-1.30298 -2.21844,-2.85081 -2.92184,-4.6424 -0.7034,-1.84589 -1.05512,-3.90886 -1.05512,-6.18907 v -0.97668 c 0,-2.17164 0.35172,-4.15392 1.05512,-5.94551 0.7034,-1.84589 1.67738,-3.4198 2.92184,-4.72278 1.24446,-1.30298 2.70501,-2.30797 4.38234,-3.01374 1.67731,-0.76008 3.4628,-1.1399 5.35655,-1.1399 z m 149.41559,0 c 1.89374,0 3.65242,0.35293 5.27564,1.0587 1.67731,0.70579 3.11107,1.70995 4.30142,3.01293 1.24448,1.2487 2.19164,2.76881 2.84093,4.5604 0.70338,1.73732 1.05512,3.69186 1.05512,5.8635 v 1.62865 c 0,2.22592 -0.35174,4.23509 -1.05512,6.02669 -0.64929,1.79159 -1.59645,3.3117 -2.84093,4.5604 -1.19035,1.24868 -2.5973,2.22596 -4.22052,2.93175 -1.62321,0.65149 -3.40869,0.97669 -5.35654,0.97669 -1.89377,0 -3.65162,-0.3521 -5.27483,-1.05789 -1.62322,-0.70577 -3.0578,-1.71078 -4.30226,-3.01376 -1.19036,-1.30297 -2.1367,-2.84999 -2.84009,-4.64158 -0.7034,-1.84587 -1.05514,-3.88195 -1.05514,-6.10787 v -0.97668 c 0,-2.17164 0.35174,-4.15392 1.05514,-5.94551 0.70339,-1.84589 1.64973,-3.4198 2.84009,-4.72278 1.24446,-1.30298 2.67904,-2.30797 4.30226,-3.01374 1.62321,-0.76008 3.38106,-1.1399 5.27483,-1.1399 z m 47.50559,0 c 1.83963,0 3.54471,0.37982 5.11381,1.1399 1.62322,0.70577 3.00254,1.71076 4.13879,3.01374 1.19036,1.30298 2.10991,2.87689 2.75919,4.72278 0.64929,1.79159 0.97422,3.77387 0.97422,5.94551 v 0.97668 c 0,2.22592 -0.32493,4.262 -0.97422,6.10787 -0.64928,1.79159 -1.54202,3.33861 -2.67827,4.64158 -1.13625,1.30298 -2.51557,2.30799 -4.13878,3.01376 -1.56912,0.70579 -3.30099,1.05789 -5.19474,1.05789 -3.84162,0 -6.97962,-1.2756 -9.41444,-3.82726 -2.38071,-2.60595 -3.57075,-6.21593 -3.57075,-10.83064 V 263.628 c 0,-2.17162 0.3241,-4.15308 0.97338,-5.94467 0.64929,-1.84588 1.54202,-3.39372 2.67828,-4.64242 1.19036,-1.30298 2.57051,-2.30714 4.13961,-3.01293 1.5691,-0.70577 3.30016,-1.0587 5.19392,-1.0587 z"
       id="text12"
       inkscape:connector-curvature="0" />
  </g>
</svg>
